<?xml version="1.0" encoding="UTF-8" standalone="no"?>
<svg
   xmlns:dc="http://purl.org/dc/elements/1.1/"
   xmlns:cc="http://creativecommons.org/ns#"
   xmlns:rdf="http://www.w3.org/1999/02/22-rdf-syntax-ns#"
   xmlns:svg="http://www.w3.org/2000/svg"
   xmlns="http://www.w3.org/2000/svg"
   xmlns:sodipodi="http://sodipodi.sourceforge.net/DTD/sodipodi-0.dtd"
   xmlns:inkscape="http://www.inkscape.org/namespaces/inkscape"
   width="80"
   height="80"
   viewBox="0 0 80 80"
   version="1.1"
   id="svg8"
   sodipodi:docname="overlapping-circles.svg"
   inkscape:version="0.92.4 5da689c313, 2019-01-14">
  <metadata
     id="metadata14">
    <rdf:RDF>
      <cc:Work
         rdf:about="">
        <dc:format>image/svg+xml</dc:format>
        <dc:type
           rdf:resource="http://purl.org/dc/dcmitype/StillImage" />
        <dc:title></dc:title>
      </cc:Work>
    </rdf:RDF>
  </metadata>
  <defs
     id="defs12" />
  <sodipodi:namedview
     pagecolor="#ffffff"
     bordercolor="#666666"
     borderopacity="1"
     objecttolerance="10"
     gridtolerance="10"
     guidetolerance="10"
     inkscape:pageopacity="0"
     inkscape:pageshadow="2"
     inkscape:window-width="1080"
     inkscape:window-height="797"
     id="namedview10"
     showgrid="false"
     inkscape:zoom="2.95"
     inkscape:cx="-46.440678"
     inkscape:cy="40"
     inkscape:window-x="0"
     inkscape:window-y="0"
     inkscape:window-maximized="0"
     inkscape:current-layer="svg8" />
  <g
     fill="none"
     fill-rule="evenodd"
     id="g6"
     style="fill:#f995c2;fill-opacity:0.94117647">
    <g
       fill="#000"
       id="g4"
       style="fill:#f995c2;fill-opacity:0.94117647">
      <path
         d="M50 50c0-5.523 4.477-10 10-10s10 4.477 10 10-4.477 10-10 10c0 5.523-4.477 10-10 10s-10-4.477-10-10 4.477-10 10-10zM10 10c0-5.523 4.477-10 10-10s10 4.477 10 10-4.477 10-10 10c0 5.523-4.477 10-10 10S0 25.523 0 20s4.477-10 10-10zm10 8c4.418 0 8-3.582 8-8s-3.582-8-8-8-8 3.582-8 8 3.582 8 8 8zm40 40c4.418 0 8-3.582 8-8s-3.582-8-8-8-8 3.582-8 8 3.582 8 8 8z"
         id="path2"
         style="fill:#f995c2;fill-opacity:0.94117647" />
    </g>
  </g>
</svg>
